<svg xmlns="http://www.w3.org/2000/svg" xmlns:xlink="http://www.w3.org/1999/xlink" width="135" height="135" viewBox="0 0 135 135">
  <defs>
    <filter id="Elipse_19" x="0" y="0" width="135" height="135" filterUnits="userSpaceOnUse">
      <feOffset dy="3" input="SourceAlpha"/>
      <feGaussianBlur stdDeviation="3" result="blur"/>
      <feFlood flood-opacity="0.161"/>
      <feComposite operator="in" in2="blur"/>
      <feComposite in="SourceGraphic"/>
    </filter>
  </defs>
  <g id="BANDAS" transform="translate(6638 23565)">
    <g id="Grupo_2002" data-name="Grupo 2002" transform="translate(-6629 -23559.082)">
      <g transform="matrix(1, 0, 0, 1, -9, -5.92)" filter="url(#Elipse_19)">
        <circle id="Elipse_19-2" data-name="Elipse 19" cx="58.5" cy="58.5" r="58.5" transform="translate(9 6)" fill="#fff"/>
      </g>
      <path id="Trazado_804" data-name="Trazado 804" d="M66.861,44.4a46.59,46.59,0,0,0-7.144-13.267,2.291,2.291,0,0,1-.17-2.722,27.1,27.1,0,0,0,2.977-8.42c.51-3.317-.255-5.783-2.466-7.824A50.074,50.074,0,0,1,55.295,7.4a7.309,7.309,0,0,0-6.8-2.381,28.876,28.876,0,0,0-9.866,3.4,1.288,1.288,0,0,1-1.446-.085,11.081,11.081,0,0,1-1.276-.85h-.17C34.118,6.379,32.5,5.273,30.8,4.337A29.965,29.965,0,0,0,19.319.085,6.025,6.025,0,0,0,18.129,0a6.826,6.826,0,0,0-5.358,2.3C11.07,4.167,9.2,5.953,7.413,7.739l-.255.17A6.5,6.5,0,0,0,5.2,12.417a18.431,18.431,0,0,0,1.956,8.5,49.247,49.247,0,0,0,5.273,9.355l.17.255-.68.85A77.385,77.385,0,0,0,3.926,43.034,28.886,28.886,0,0,0,.184,53.58c-.34,2.722.255,4.678,1.786,6.209L4.521,62.34l.255.255,3.317,3.317A5.994,5.994,0,0,0,11.665,67.7a8.251,8.251,0,0,0,1.446.085,18.8,18.8,0,0,0,5.613-1.106,50.606,50.606,0,0,0,12.332-6.634c1.361-1.021,2.807-2.041,4.082-3.062l.085-.085c.6-.51,1.276-.936,1.871-1.446l.255-.17.255.17c.34.17.68.425,1.021.6l.17.085q1.148.765,2.551,1.531c3.572,2.041,7.4,4.082,11.822,4.763,2.977.425,5.018-.085,6.719-1.7l4.678-4.678L66.1,54.516a6.186,6.186,0,0,0,1.7-3.4A15.547,15.547,0,0,0,66.861,44.4Zm-22.2,2.041-.34.34-.51.425L37.69,42.524l2.381-2.551A80.905,80.905,0,0,0,53,22.2a26.49,26.49,0,0,0,3.147-10.036.643.643,0,0,1,.085-.34l.255-1.191.6.68A15.718,15.718,0,0,0,58.271,12.5a22.993,22.993,0,0,1,2.381,2.636c1.021,1.531.85,3.4.51,5.1a29.718,29.718,0,0,1-3.827,9.525A81.6,81.6,0,0,1,44.664,46.436Zm6.123-23.048c-.936,1.616-1.956,3.147-2.807,4.593l-.85,1.446-8.08-8.165.085-.085-.34-.6.255-.17.765-.51c.6-.425,1.276-.765,1.871-1.191.85-.51,1.7-1.021,2.466-1.531a1.07,1.07,0,0,1,1.446.17c.765.765,1.531,1.616,2.381,2.381.85.85,1.7,1.7,2.466,2.551A.788.788,0,0,1,50.787,23.388Zm-13.693-1.7,9.1,9.1-9.355,10.8-.34-.255a99.9,99.9,0,0,1-9.951-9.951l-.255-.34Zm16.84-9.866c-5.188.936-9.525,3.4-13.523,5.953A99.475,99.475,0,0,0,26.549,28.916l-.51.51-.68.6-1.106-1.446c-.936-1.276-2.041-2.722-3.062-4.082a1.018,1.018,0,0,1,.085-1.191C27.059,17.86,34.118,11.822,43.048,8.165A25.766,25.766,0,0,1,48.066,6.8l.765-.17a6.4,6.4,0,0,1,2.551.085,4.184,4.184,0,0,1,3.487,4C54.785,10.971,54.87,11.652,53.934,11.822Zm-8.76,36.23,7.569-8.675.34.51c2.722,4.167,5.528,8.76,6.719,14.288l.17.68-.68-.17c-5.273-1.106-9.61-3.742-13.608-6.294Zm12.417,7.654c.765.17,1.616.34,2.466.51a6.565,6.565,0,0,0,1.276.17l.85.17-.68.6A7.344,7.344,0,0,0,60.4,58.343h0a10.129,10.129,0,0,1-2.892,2.466,6.214,6.214,0,0,1-2.551.51,13.146,13.146,0,0,1-2.636-.34,38.244,38.244,0,0,1-11.311-4.933A88.365,88.365,0,0,1,26.8,44.99,93.977,93.977,0,0,1,12.6,28.151,43.089,43.089,0,0,1,6.988,16.414a9.666,9.666,0,0,1-.255-5.188,5.315,5.315,0,0,1,.85-1.7c.68-.765,1.446-1.446,2.211-2.211.34-.255.6-.6.936-.85l.68-.68.085.936c.68,6.8,4,12.417,7.484,17.52A97.768,97.768,0,0,0,46.96,51.114,46.145,46.145,0,0,0,57.591,55.706Zm3.657-1.361A27.737,27.737,0,0,0,58.1,45.5c-.765-1.446-1.616-2.892-2.466-4.252l-.085-.085c-.425-.765-.936-1.531-1.361-2.3a1.347,1.347,0,0,1-.085-1.276c.936-1.446,1.871-2.807,2.892-4.337l1.276-1.871.34.51c3.487,5.1,6.464,9.866,7.569,15.564a11.972,11.972,0,0,1,.085,3.912,3.965,3.965,0,0,1-4,3.4h-.6l-.425-.085ZM54.614,13.523a26.911,26.911,0,0,1-2.466,7.229l-.255.51-5.528-5.613,8.42-2.977Zm-34.785,9.1-.255-.425C16.6,17.6,14.387,13.523,13.281,8.59l-.17-.68.68.17C19.234,9.27,23.827,11.992,28.079,14.8l.51.34ZM35.394,10.461c-.34.255-.765.51-1.106.765l-.68.425c-1.021.68-2.041,1.361-2.977,2.041a1.408,1.408,0,0,1-1.786,0A48.1,48.1,0,0,0,17.278,7.569L14.727,6.8c-.425-.085-.85-.255-1.276-.34l-.34-.085v-.34a4.3,4.3,0,0,1,1.106-3.232,4.81,4.81,0,0,1,3.317-1.446,15.488,15.488,0,0,1,5.953,1.106,54.229,54.229,0,0,1,12.5,6.8l.51.425ZM12.941,66.422a5.164,5.164,0,0,1-4.167-1.786c-.51-.6-1.106-1.106-1.616-1.616l-.765-.765-.6-.6.85-.17,1.531-.255a19.777,19.777,0,0,0,3.062-.68A46.5,46.5,0,0,0,24.252,53.92q1.914-1.276,3.827-2.807c.6-.425,1.191-.85,1.786-1.361l.255-.17,6.123,4.848-.936.765a4.673,4.673,0,0,1-.765.6c-3.827,2.977-8.93,6.719-14.968,9.1a17.062,17.062,0,0,1-6.209,1.446A1.488,1.488,0,0,1,12.941,66.422Zm15.139-17.18C22.466,53.58,16.343,57.918,8.774,59.619l-.68.17.17-.68c1.7-7.569,6.038-13.693,10.376-19.391l.34-.425,9.61,9.61ZM13.366,31.808l4.848,6.123-.17.34c-.255.34-.6.765-.85,1.106l-.085.085c-.6.85-1.361,1.786-1.956,2.636A50.027,50.027,0,0,0,7.838,55.366a25.329,25.329,0,0,0-.936,3.4l-.085.255c-.085.51-.34.936-1.191.85C3.075,59.7,1.544,57.918,1.459,55.2A17.225,17.225,0,0,1,2.735,48.9,60.253,60.253,0,0,1,11.92,33.594c.255-.34.51-.6.765-.936Z" transform="translate(24.929 22.298)" fill="#423443" stroke="#8b7f89" stroke-width="0.4"/>
    </g>
  </g>
</svg>
