<svg xmlns="http://www.w3.org/2000/svg" xmlns:xlink="http://www.w3.org/1999/xlink" width="135" height="135" viewBox="0 0 135 135">
  <defs>
    <filter id="Elipse_19" x="0" y="0" width="135" height="135" filterUnits="userSpaceOnUse">
      <feOffset dy="3" input="SourceAlpha"/>
      <feGaussianBlur stdDeviation="3" result="blur"/>
      <feFlood flood-opacity="0.161"/>
      <feComposite operator="in" in2="blur"/>
      <feComposite in="SourceGraphic"/>
    </filter>
  </defs>
  <g id="ESPUMAS" transform="translate(7432 23147)">
    <g id="Grupo_824" data-name="Grupo 824" transform="translate(-7423 -23141.242)">
      <g transform="matrix(1, 0, 0, 1, -9, -5.76)" filter="url(#Elipse_19)">
        <circle id="Elipse_19-2" data-name="Elipse 19" cx="58.5" cy="58.5" r="58.5" transform="translate(9 6)" fill="#fff"/>
      </g>
      <path id="Trazado_806" data-name="Trazado 806" d="M49.187,0h-.445A16.4,16.4,0,0,0,37.357,5.07C31.843,10.585,26.328,16.188,20.813,21.7L4.892,37.624a17.861,17.861,0,0,0-2.4,3.024,17.022,17.022,0,0,0-2.224,12.1c1.512,9.339,10.5,16.811,19.835,16.633a25.823,25.823,0,0,0,10.762-2.49,27.122,27.122,0,0,0,7.382-5.426L61.284,38.425l8.806-8.895a25.722,25.722,0,0,0,5.693-8.183,25.666,25.666,0,0,0,2.046-9.784.893.893,0,0,0-.534-.889,1.006,1.006,0,0,0-1.067.178c-.178.089-.267.267-.356.356l-6.315,6.315C60.928,26.15,52.3,34.867,43.584,43.494a1.832,1.832,0,0,0-.623,1.512v.267a33.779,33.779,0,0,1-.445,4.091,23.036,23.036,0,0,1-9.339,14.053,21.532,21.532,0,0,1-15.3,4C10.051,66.442,4.27,61.195,2.224,53.367A15.282,15.282,0,0,1,3.914,41.8a14.736,14.736,0,0,1,9.428-6.671,11.786,11.786,0,0,1,8.984,1.512,11.242,11.242,0,0,1,4.981,7.2,9.03,9.03,0,0,1-5.07,10.5,7.473,7.473,0,0,1-9.161-2.135,7.087,7.087,0,0,1-1.334-4.18,5.572,5.572,0,0,1,4.625-5.159,4.943,4.943,0,0,0,1.512-.534c.267-.267,0-.8,0-.889-.178-.267-.356-.534-1.067-.445a7.288,7.288,0,0,0-6.048,3.914,7.921,7.921,0,0,0,.089,7.2,8.63,8.63,0,0,0,6.226,4.714c3.647.623,6.76-.445,9.606-3.38l4-4L58.971,21.169a12,12,0,0,0,2.4-3.291,12.066,12.066,0,0,0-.978-11.83A13.391,13.391,0,0,0,49.187,0ZM44.3,50.521c.089-.356.089-.712.178-.978a9.9,9.9,0,0,0,.178-1.512,7.26,7.26,0,0,1,2.579-5.515c6.493-6.4,12.986-12.9,19.3-19.212L73.2,16.633l.445-.445,2.224-2.135-.623,2.757a20.859,20.859,0,0,1-5.959,10.851L54.435,42.516l-8.183,8.272-.267.267L43.85,52.923ZM59.772,16.9a12.16,12.16,0,0,1-1.779,2.579C50.7,26.773,43.317,34.066,36.023,41.36l-4.8,4.8c0,.089-.089.089-.178.178L29.53,47.586l-.089-1.779a12.908,12.908,0,0,0-4.625-9.517,13.46,13.46,0,0,0-10.407-3.2l-2.135.267,1.512-1.868a1.94,1.94,0,0,1,.356-.445L21.08,24.1C26.951,18.145,33.088,12.1,39.136,6.137A13.325,13.325,0,0,1,53.19,2.579a10.966,10.966,0,0,1,6.493,5.959A10.9,10.9,0,0,1,59.772,16.9Z" transform="translate(19.585 22.893)" fill="#423443"/>
    </g>
  </g>
</svg>
